<?xml version="1.0" encoding="UTF-8"?>
<svg width="304px" height="203px" viewBox="0 0 304 203" version="1.1" xmlns="http://www.w3.org/2000/svg" xmlns:xlink="http://www.w3.org/1999/xlink">
    <!-- Generator: Sketch 48.1 (47250) - http://www.bohemiancoding.com/sketch -->
    <title>images/name-logo</title>
    <desc>Created with Sketch.</desc>
    <defs>
        <linearGradient x1="44.3800002%" y1="8.17860514%" x2="121.090119%" y2="122.048713%" id="linearGradient-1">
            <stop stop-color="#468DBC" offset="0%"></stop>
            <stop stop-color="#7ACCD7" offset="36.3507011%"></stop>
            <stop stop-color="#3EA8D3" offset="100%"></stop>
        </linearGradient>
        <linearGradient x1="44.001792%" y1="23.5020175%" x2="78.0359967%" y2="125.550621%" id="linearGradient-2">
            <stop stop-color="#468DBC" offset="0%"></stop>
            <stop stop-color="#7ACCD7" offset="59.500558%"></stop>
            <stop stop-color="#3EA8D3" offset="100%"></stop>
        </linearGradient>
        <linearGradient x1="50%" y1="100%" x2="100%" y2="-1.08425377%" id="linearGradient-3">
            <stop stop-color="#493543" stop-opacity="0.31994452" offset="0%"></stop>
            <stop stop-color="#231820" offset="100%"></stop>
        </linearGradient>
    </defs>
    <g id="Symbols" stroke="none" stroke-width="1" fill="none" fill-rule="evenodd">
        <g id="images/name-logo">
            <g id="Group">
                <g id="Butterfly-group" transform="translate(80.000000, 0.000000)">
                    <g id="Butterfly" transform="translate(36.089627, 0.000000)">
                        <g>
                            <g id="Wings">
                                <g id="Windgroup" transform="translate(36.000000, 0.000000)">
                                    <path d="M0,14.085494 C0,13.3862791 0,14.235622 0,16.6335229 C5.8799664,24.8200608 21.1648216,23.0777465 22.3308132,23.5136983 C26.609584,25.1134849 32.4404792,28.4908148 33.047313,25.8405164 C33.6541469,23.1902181 26.266942,18.7194726 14.8096488,15.0233379 C10.5671665,14.9400624 5.63061693,14.6274478 0,14.085494 Z" id="Lowerwind" fill="url(#linearGradient-1)"></path>
                                    <path d="M4.67743807e-22,10.7430894 C6.0862582,8.92693178 10.8361913,7.4665374 14.2497994,6.36190629 C20.029248,4.49169779 26.2806798,2.3710854 33.0040948,6.91049628e-05 C35.0131605,-0.0090465504 38.8517501,0.8754583 31.9912371,7.54164014 C25.130724,14.207822 10.9980215,17.705511 4.67743807e-22,14.1937487 C-1.55914602e-22,11.8933092 -1.55914602e-22,10.7430894 4.67743807e-22,10.7430894 Z" id="Upperwind" fill="url(#linearGradient-2)"></path>
                                </g>
                                <g id="Windgroup" transform="translate(18.000000, 13.326180) scale(-1, 1) translate(-18.000000, -13.326180) ">
                                    <path d="M0,14.085494 C0,13.3862791 0,14.235622 0,16.6335229 C5.8799664,24.8200608 21.1648216,23.0777465 22.3308132,23.5136983 C26.609584,25.1134849 32.4404792,28.4908148 33.047313,25.8405164 C33.6541469,23.1902181 26.266942,18.7194726 14.8096488,15.0233379 C10.5671665,14.9400624 5.63061693,14.6274478 0,14.085494 Z" id="Lowerwind" fill="url(#linearGradient-1)"></path>
                                    <path d="M4.67743807e-22,10.7430894 C6.0862582,8.92693178 10.8361913,7.4665374 14.2497994,6.36190629 C20.029248,4.49169779 26.2806798,2.3710854 33.0040948,6.91049628e-05 C35.0131605,-0.0090465504 38.8517501,0.8754583 31.9912371,7.54164014 C25.130724,14.207822 10.9980215,17.705511 4.67743807e-22,14.1937487 C-1.55914602e-22,11.8933092 -1.55914602e-22,10.7430894 4.67743807e-22,10.7430894 Z" id="Upperwind" fill="url(#linearGradient-2)"></path>
                                </g>
                            </g>
                            <g id="Body" transform="translate(33.342981, 6.811159)">
                                <path d="M2.76121563,4.34334764 C4.28619291,4.34334764 5.52243126,3.37105615 5.52243126,2.17167382 C5.52243126,1.42531371 4.80401379,1.16904139 4.07489282,0.778134 C3.63233433,0.540862836 3.33721927,0 2.76121563,0 C2.44299879,0 1.97549852,0.412333984 1.69103598,0.490236201 C0.61228056,0.785661531 0,1.22256646 0,2.17167382 C0,3.37105615 1.23623835,4.34334764 2.76121563,4.34334764 Z" id="Oval" fill="#231820"></path>
                                <path d="M1.86328446,3.65236052 C1.86328446,7.05325049 1.84521403,9.77812843 1.79098755,15.9139498 C1.78976096,16.0527404 1.78976096,16.0527404 1.78853478,16.1915325 C1.73466327,22.2903144 1.71608837,25.2258156 1.71886653,28.7229096 C1.72041486,30.6719178 1.6618609,32.2345673 1.4852113,35.7507184 C1.33498747,38.7408735 1.2803716,40.0696488 1.25761009,41.7344509 C1.25134963,42.192348 1.2490963,42.6374796 1.25103842,43.073225 C1.26609402,46.4511743 1.32588925,49.9372455 1.43508088,54.3895835 C1.46913918,55.7783258 1.49807095,56.8874363 1.564636,59.3894142 C1.75412979,66.5119094 1.82500747,69.6805663 1.86330621,73.639485 L3.33427636,73.6304885 C3.30959887,71.0795904 3.27143862,68.8570797 3.19688742,65.699144 C3.15553293,63.9473971 3.10298073,61.9078144 3.03532064,59.3646774 C2.96877274,56.8633445 2.93985217,55.7546629 2.90581495,54.3667802 C2.7967629,49.9201339 2.73706628,46.439811 2.72204285,43.0690801 C2.72012643,42.6391022 2.72235138,42.1995763 2.72853684,41.7471652 C2.75109179,40.0974711 2.80539784,38.7762336 2.95505272,35.7974033 C3.13249602,32.2654539 3.19144498,30.6922628 3.1898799,28.7221708 C3.18710486,25.2290087 3.20566651,22.2956008 3.25951217,16.199747 C3.26073832,16.0609585 3.26073832,16.0609585 3.2619649,15.9221686 C3.31621561,9.7836055 3.33429812,7.05690496 3.33429812,3.65236052 L1.86328446,3.65236052 Z" id="Path-5" fill="url(#linearGradient-3)" fill-rule="nonzero"></path>
                            </g>
                        </g>
                    </g>
                    <g id="Butterfly" transform="translate(0.000000, 32.628099)">
                        <g>
                            <g id="Wings">
                                <g id="Windgroup" transform="translate(24.000000, 0.000000)">
                                    <path d="M0,9.39032937 C0,8.92418607 0,9.4904147 0,11.0890152 C3.9199776,16.5467072 14.109881,15.3851644 14.8872088,15.6757989 C17.7397226,16.7423233 21.6269861,18.9938765 22.031542,17.227011 C22.436098,15.4601454 17.5112946,12.4796484 9.87309919,10.0155586 C7.04477768,9.96004163 3.75374462,9.75163189 0,9.39032937 Z" id="Lowerwind" fill="url(#linearGradient-1)"></path>
                                    <path d="M3.11829204e-22,7.16205962 C4.05750546,5.95128785 7.22412754,4.9776916 9.49986623,4.24127086 C13.352832,2.99446519 17.5204532,1.5807236 22.0027299,4.60699752e-05 C23.342107,-0.0060310336 25.9011667,0.583638867 21.3274914,5.02776009 C16.753816,9.47188132 7.33201433,11.803674 3.11829204e-22,9.46249913 C-1.03943068e-22,7.92887279 -1.03943068e-22,7.16205962 3.11829204e-22,7.16205962 Z" id="Upperwind" fill="url(#linearGradient-2)"></path>
                                </g>
                                <g id="Windgroup" transform="translate(12.000000, 8.980687) scale(-1, 1) translate(-12.000000, -8.980687) ">
                                    <path d="M0,9.39032937 C0,8.92418607 0,9.4904147 0,11.0890152 C3.9199776,16.5467072 14.109881,15.3851644 14.8872088,15.6757989 C17.7397226,16.7423233 21.6269861,18.9938765 22.031542,17.227011 C22.436098,15.4601454 17.5112946,12.4796484 9.87309919,10.0155586 C7.04477768,9.96004163 3.75374462,9.75163189 0,9.39032937 Z" id="Lowerwind" fill="url(#linearGradient-1)"></path>
                                    <path d="M3.11829204e-22,7.16205962 C4.05750546,5.95128785 7.22412754,4.9776916 9.49986623,4.24127086 C13.352832,2.99446519 17.5204532,1.5807236 22.0027299,4.60699752e-05 C23.342107,-0.0060310336 25.9011667,0.583638867 21.3274914,5.02776009 C16.753816,9.47188132 7.33201433,11.803674 3.11829204e-22,9.46249913 C-1.03943068e-22,7.92887279 -1.03943068e-22,7.16205962 3.11829204e-22,7.16205962 Z" id="Upperwind" fill="url(#linearGradient-2)"></path>
                                </g>
                            </g>
                            <g id="Body" transform="translate(22.228654, 4.590129)">
                                <path d="M1.84081042,2.92703863 C2.85746194,2.92703863 3.68162084,2.27179871 3.68162084,1.46351931 C3.68162084,0.960537497 3.20267586,0.787832241 2.71659521,0.524394652 C2.42155622,0.36449452 2.22481285,0 1.84081042,0 C1.62866586,0 1.31699901,0.27787725 1.12735732,0.33037657 C0.40818704,0.529467554 0,0.823903486 0,1.46351931 C0,2.27179871 0.824158898,2.92703863 1.84081042,2.92703863 Z" id="Oval" fill="#231820"></path>
                                <path d="M1.24218964,2.46137339 C1.24218964,4.75327751 1.23014269,6.58960829 1.1939917,10.7246184 C1.19317398,10.8181512 1.19317398,10.8181512 1.19235652,10.9116849 C1.15644218,15.0217336 1.14405891,17.0000061 1.14591102,19.3567434 C1.14694324,20.6702055 1.10790727,21.7232954 0.990140868,24.0928754 C0.889991645,26.1079799 0.85358107,27.0034589 0.838406726,28.1253908 C0.834233085,28.4339737 0.832730864,28.7339537 0.834025616,29.0276082 C0.844062682,31.3040522 0.883926166,33.6533611 0.95672059,36.6538497 C0.979426121,37.5897413 0.998713964,38.3371853 1.04309067,40.0233009 C1.16941986,44.8232433 1.21667165,46.9586425 1.24220414,49.6266094 L2.22285091,49.6205466 C2.20639924,47.9014631 2.18095908,46.4036841 2.13125828,44.2755101 C2.10368862,43.094985 2.06865382,41.7204836 2.02354709,40.0066304 C1.97918183,38.3209495 1.95990144,37.5737946 1.93720997,36.6384823 C1.8645086,33.6418294 1.82471085,31.2963944 1.81469523,29.0248148 C1.81341762,28.7350471 1.81490092,28.4388449 1.81902456,28.1339591 C1.83406119,27.0222088 1.87026522,26.1318096 1.97003515,24.124337 C2.08833068,21.7441103 2.12762999,20.6839163 2.1265866,19.3562455 C2.12473657,17.0021581 2.13711101,15.0252962 2.17300811,10.9172208 C2.17382554,10.8236894 2.17382554,10.8236894 2.17464327,10.7301571 C2.2108104,6.59329936 2.22286541,4.7557403 2.22286541,2.46137339 L1.24218964,2.46137339 Z" id="Path-5" fill="url(#linearGradient-3)" fill-rule="nonzero"></path>
                            </g>
                        </g>
                    </g>
                    <g id="Butterfly" transform="translate(31.787552, 54.148760)">
                        <g>
                            <g id="Wings">
                                <g id="Windgroup" transform="translate(18.000000, 0.000000)">
                                    <path d="M0,6.78190454 C0,6.4452455 0,6.85418839 0,8.00873323 C2.9399832,11.9503996 10.5824108,11.1115076 11.1654066,11.3214103 C13.304792,12.0916779 16.2202396,13.7177997 16.5236565,12.4417301 C16.8270735,11.1656606 13.133471,9.01307941 7.40482439,7.23345897 C5.28358326,7.1933634 2.81530846,7.04284525 0,6.78190454 Z" id="Lowerwind" fill="url(#linearGradient-1)"></path>
                                    <path d="M2.33871903e-22,5.17259861 C3.0431291,4.29815234 5.41809566,3.59499949 7.12489968,3.06314006 C10.014624,2.16266931 13.1403399,1.14163371 16.5020474,3.32727599e-05 C17.5065803,-0.00435574649 19.4258751,0.421516959 15.9956185,3.63116007 C12.565362,6.84080318 5.49901075,8.52487568 2.33871903e-22,6.83402715 C-7.79573011e-23,5.72640813 -7.79573011e-23,5.17259861 2.33871903e-22,5.17259861 Z" id="Upperwind" fill="url(#linearGradient-2)"></path>
                                </g>
                                <g id="Windgroup" transform="translate(9.000000, 6.663090) scale(-1, 1) translate(-9.000000, -6.663090) ">
                                    <path d="M0,6.78190454 C0,6.4452455 0,6.85418839 0,8.00873323 C2.9399832,11.9503996 10.5824108,11.1115076 11.1654066,11.3214103 C13.304792,12.0916779 16.2202396,13.7177997 16.5236565,12.4417301 C16.8270735,11.1656606 13.133471,9.01307941 7.40482439,7.23345897 C5.28358326,7.1933634 2.81530846,7.04284525 0,6.78190454 Z" id="Lowerwind" fill="url(#linearGradient-1)"></path>
                                    <path d="M2.33871903e-22,5.17259861 C3.0431291,4.29815234 5.41809566,3.59499949 7.12489968,3.06314006 C10.014624,2.16266931 13.1403399,1.14163371 16.5020474,3.32727599e-05 C17.5065803,-0.00435574649 19.4258751,0.421516959 15.9956185,3.63116007 C12.565362,6.84080318 5.49901075,8.52487568 2.33871903e-22,6.83402715 C-7.79573011e-23,5.72640813 -7.79573011e-23,5.17259861 2.33871903e-22,5.17259861 Z" id="Upperwind" fill="url(#linearGradient-2)"></path>
                                </g>
                            </g>
                            <g id="Body" transform="translate(16.671491, 3.405579)">
                                <path d="M1.38060781,2.17167382 C2.14309646,2.17167382 2.76121563,1.68552808 2.76121563,1.08583691 C2.76121563,0.712656853 2.4020069,0.584520695 2.03744641,0.389067 C1.81616716,0.270431418 1.66860964,0 1.38060781,0 C1.2214994,0 0.987749259,0.206166992 0.845517991,0.245118101 C0.30614028,0.392830766 0,0.611283232 0,1.08583691 C0,1.68552808 0.618119173,2.17167382 1.38060781,2.17167382 Z" id="Oval" fill="#231820"></path>
                                <path d="M0.931642228,1.82618026 C0.931642228,3.52662525 0.922607016,4.88906421 0.895493776,7.95697491 C0.894880482,8.02637021 0.894880482,8.02637021 0.894267391,8.09576625 C0.867331633,11.1451572 0.858044184,12.6129078 0.859433264,14.3614548 C0.86020743,15.3359589 0.830930451,16.1172837 0.742605651,17.8753592 C0.667493734,19.3704367 0.640185802,20.0348244 0.628805045,20.8672255 C0.625674813,21.096174 0.624548148,21.3187398 0.625519212,21.5366125 C0.633047011,23.2255871 0.662944625,24.9686227 0.717540442,27.1947917 C0.734569591,27.8891629 0.749035473,28.4437182 0.782317999,29.6947071 C0.877064895,33.2559547 0.912503734,34.8402831 0.931653107,36.8197425 L1.66713818,36.8152443 C1.65479943,35.5397952 1.63571931,34.4285398 1.59844371,32.849572 C1.57776647,31.9736986 1.55149036,30.9539072 1.51766032,29.6823387 C1.48438637,28.4316722 1.46992608,27.8773314 1.45290748,27.1833901 C1.39838145,24.9600669 1.36853314,23.2199055 1.36102142,21.53454 C1.36006321,21.3195511 1.36117569,21.0997881 1.36426842,20.8735826 C1.3755459,20.0487356 1.40269892,19.3881168 1.47752636,17.8987016 C1.56624801,16.132727 1.59572249,15.3461314 1.59493995,14.3610854 C1.59355243,12.6145044 1.60283326,11.1478004 1.62975608,8.09987352 C1.63036916,8.03047923 1.63036916,8.03047923 1.63098245,7.96108428 C1.6581078,4.89180275 1.66714906,3.52845248 1.66714906,1.82618026 L0.931642228,1.82618026 Z" id="Path-5" fill="url(#linearGradient-3)" fill-rule="nonzero"></path>
                            </g>
                        </g>
                    </g>
                    <g id="Butterfly" transform="translate(80.783402, 61.206612)">
                        <g>
                            <g id="Wings">
                                <g id="Windgroup" transform="translate(18.000000, 0.000000)">
                                    <path d="M0,6.78190454 C0,6.4452455 0,6.85418839 0,8.00873323 C2.9399832,11.9503996 10.5824108,11.1115076 11.1654066,11.3214103 C13.304792,12.0916779 16.2202396,13.7177997 16.5236565,12.4417301 C16.8270735,11.1656606 13.133471,9.01307941 7.40482439,7.23345897 C5.28358326,7.1933634 2.81530846,7.04284525 0,6.78190454 Z" id="Lowerwind" fill="url(#linearGradient-1)"></path>
                                    <path d="M2.33871903e-22,5.17259861 C3.0431291,4.29815234 5.41809566,3.59499949 7.12489968,3.06314006 C10.014624,2.16266931 13.1403399,1.14163371 16.5020474,3.32727599e-05 C17.5065803,-0.00435574649 19.4258751,0.421516959 15.9956185,3.63116007 C12.565362,6.84080318 5.49901075,8.52487568 2.33871903e-22,6.83402715 C-7.79573011e-23,5.72640813 -7.79573011e-23,5.17259861 2.33871903e-22,5.17259861 Z" id="Upperwind" fill="url(#linearGradient-2)"></path>
                                </g>
                                <g id="Windgroup" transform="translate(9.000000, 6.663090) scale(-1, 1) translate(-9.000000, -6.663090) ">
                                    <path d="M0,6.78190454 C0,6.4452455 0,6.85418839 0,8.00873323 C2.9399832,11.9503996 10.5824108,11.1115076 11.1654066,11.3214103 C13.304792,12.0916779 16.2202396,13.7177997 16.5236565,12.4417301 C16.8270735,11.1656606 13.133471,9.01307941 7.40482439,7.23345897 C5.28358326,7.1933634 2.81530846,7.04284525 0,6.78190454 Z" id="Lowerwind" fill="url(#linearGradient-1)"></path>
                                    <path d="M2.33871903e-22,5.17259861 C3.0431291,4.29815234 5.41809566,3.59499949 7.12489968,3.06314006 C10.014624,2.16266931 13.1403399,1.14163371 16.5020474,3.32727599e-05 C17.5065803,-0.00435574649 19.4258751,0.421516959 15.9956185,3.63116007 C12.565362,6.84080318 5.49901075,8.52487568 2.33871903e-22,6.83402715 C-7.79573011e-23,5.72640813 -7.79573011e-23,5.17259861 2.33871903e-22,5.17259861 Z" id="Upperwind" fill="url(#linearGradient-2)"></path>
                                </g>
                            </g>
                            <g id="Body" transform="translate(16.671491, 3.405579)">
                                <path d="M1.38060781,2.17167382 C2.14309646,2.17167382 2.76121563,1.68552808 2.76121563,1.08583691 C2.76121563,0.712656853 2.4020069,0.584520695 2.03744641,0.389067 C1.81616716,0.270431418 1.66860964,0 1.38060781,0 C1.2214994,0 0.987749259,0.206166992 0.845517991,0.245118101 C0.30614028,0.392830766 0,0.611283232 0,1.08583691 C0,1.68552808 0.618119173,2.17167382 1.38060781,2.17167382 Z" id="Oval" fill="#231820"></path>
                                <path d="M0.931642228,1.82618026 C0.931642228,3.52662525 0.922607016,4.88906421 0.895493776,7.95697491 C0.894880482,8.02637021 0.894880482,8.02637021 0.894267391,8.09576625 C0.867331633,11.1451572 0.858044184,12.6129078 0.859433264,14.3614548 C0.86020743,15.3359589 0.830930451,16.1172837 0.742605651,17.8753592 C0.667493734,19.3704367 0.640185802,20.0348244 0.628805045,20.8672255 C0.625674813,21.096174 0.624548148,21.3187398 0.625519212,21.5366125 C0.633047011,23.2255871 0.662944625,24.9686227 0.717540442,27.1947917 C0.734569591,27.8891629 0.749035473,28.4437182 0.782317999,29.6947071 C0.877064895,33.2559547 0.912503734,34.8402831 0.931653107,36.8197425 L1.66713818,36.8152443 C1.65479943,35.5397952 1.63571931,34.4285398 1.59844371,32.849572 C1.57776647,31.9736986 1.55149036,30.9539072 1.51766032,29.6823387 C1.48438637,28.4316722 1.46992608,27.8773314 1.45290748,27.1833901 C1.39838145,24.9600669 1.36853314,23.2199055 1.36102142,21.53454 C1.36006321,21.3195511 1.36117569,21.0997881 1.36426842,20.8735826 C1.3755459,20.0487356 1.40269892,19.3881168 1.47752636,17.8987016 C1.56624801,16.132727 1.59572249,15.3461314 1.59493995,14.3610854 C1.59355243,12.6145044 1.60283326,11.1478004 1.62975608,8.09987352 C1.63036916,8.03047923 1.63036916,8.03047923 1.63098245,7.96108428 C1.6581078,4.89180275 1.66714906,3.52845248 1.66714906,1.82618026 L0.931642228,1.82618026 Z" id="Path-5" fill="url(#linearGradient-3)" fill-rule="nonzero"></path>
                            </g>
                        </g>
                    </g>
                    <g id="Butterfly" transform="translate(89.746058, 26.611570)">
                        <g>
                            <g id="Wings">
                                <g id="Windgroup" transform="translate(24.000000, 0.000000)">
                                    <path d="M0,9.39032937 C0,8.92418607 0,9.4904147 0,11.0890152 C3.9199776,16.5467072 14.109881,15.3851644 14.8872088,15.6757989 C17.7397226,16.7423233 21.6269861,18.9938765 22.031542,17.227011 C22.436098,15.4601454 17.5112946,12.4796484 9.87309919,10.0155586 C7.04477768,9.96004163 3.75374462,9.75163189 0,9.39032937 Z" id="Lowerwind" fill="url(#linearGradient-1)"></path>
                                    <path d="M3.11829204e-22,7.16205962 C4.05750546,5.95128785 7.22412754,4.9776916 9.49986623,4.24127086 C13.352832,2.99446519 17.5204532,1.5807236 22.0027299,4.60699752e-05 C23.342107,-0.0060310336 25.9011667,0.583638867 21.3274914,5.02776009 C16.753816,9.47188132 7.33201433,11.803674 3.11829204e-22,9.46249913 C-1.03943068e-22,7.92887279 -1.03943068e-22,7.16205962 3.11829204e-22,7.16205962 Z" id="Upperwind" fill="url(#linearGradient-2)"></path>
                                </g>
                                <g id="Windgroup" transform="translate(12.000000, 8.980687) scale(-1, 1) translate(-12.000000, -8.980687) ">
                                    <path d="M0,9.39032937 C0,8.92418607 0,9.4904147 0,11.0890152 C3.9199776,16.5467072 14.109881,15.3851644 14.8872088,15.6757989 C17.7397226,16.7423233 21.6269861,18.9938765 22.031542,17.227011 C22.436098,15.4601454 17.5112946,12.4796484 9.87309919,10.0155586 C7.04477768,9.96004163 3.75374462,9.75163189 0,9.39032937 Z" id="Lowerwind" fill="url(#linearGradient-1)"></path>
                                    <path d="M3.11829204e-22,7.16205962 C4.05750546,5.95128785 7.22412754,4.9776916 9.49986623,4.24127086 C13.352832,2.99446519 17.5204532,1.5807236 22.0027299,4.60699752e-05 C23.342107,-0.0060310336 25.9011667,0.583638867 21.3274914,5.02776009 C16.753816,9.47188132 7.33201433,11.803674 3.11829204e-22,9.46249913 C-1.03943068e-22,7.92887279 -1.03943068e-22,7.16205962 3.11829204e-22,7.16205962 Z" id="Upperwind" fill="url(#linearGradient-2)"></path>
                                </g>
                            </g>
                            <g id="Body" transform="translate(22.228654, 4.590129)">
                                <path d="M1.84081042,2.92703863 C2.85746194,2.92703863 3.68162084,2.27179871 3.68162084,1.46351931 C3.68162084,0.960537497 3.20267586,0.787832241 2.71659521,0.524394652 C2.42155622,0.36449452 2.22481285,0 1.84081042,0 C1.62866586,0 1.31699901,0.27787725 1.12735732,0.33037657 C0.40818704,0.529467554 0,0.823903486 0,1.46351931 C0,2.27179871 0.824158898,2.92703863 1.84081042,2.92703863 Z" id="Oval" fill="#231820"></path>
                                <path d="M1.24218964,2.46137339 C1.24218964,4.75327751 1.23014269,6.58960829 1.1939917,10.7246184 C1.19317398,10.8181512 1.19317398,10.8181512 1.19235652,10.9116849 C1.15644218,15.0217336 1.14405891,17.0000061 1.14591102,19.3567434 C1.14694324,20.6702055 1.10790727,21.7232954 0.990140868,24.0928754 C0.889991645,26.1079799 0.85358107,27.0034589 0.838406726,28.1253908 C0.834233085,28.4339737 0.832730864,28.7339537 0.834025616,29.0276082 C0.844062682,31.3040522 0.883926166,33.6533611 0.95672059,36.6538497 C0.979426121,37.5897413 0.998713964,38.3371853 1.04309067,40.0233009 C1.16941986,44.8232433 1.21667165,46.9586425 1.24220414,49.6266094 L2.22285091,49.6205466 C2.20639924,47.9014631 2.18095908,46.4036841 2.13125828,44.2755101 C2.10368862,43.094985 2.06865382,41.7204836 2.02354709,40.0066304 C1.97918183,38.3209495 1.95990144,37.5737946 1.93720997,36.6384823 C1.8645086,33.6418294 1.82471085,31.2963944 1.81469523,29.0248148 C1.81341762,28.7350471 1.81490092,28.4388449 1.81902456,28.1339591 C1.83406119,27.0222088 1.87026522,26.1318096 1.97003515,24.124337 C2.08833068,21.7441103 2.12762999,20.6839163 2.1265866,19.3562455 C2.12473657,17.0021581 2.13711101,15.0252962 2.17300811,10.9172208 C2.17382554,10.8236894 2.17382554,10.8236894 2.17464327,10.7301571 C2.2108104,6.59329936 2.22286541,4.7557403 2.22286541,2.46137339 L1.24218964,2.46137339 Z" id="Path-5" fill="url(#linearGradient-3)" fill-rule="nonzero"></path>
                            </g>
                        </g>
                    </g>
                </g>
                <text id="Daina-Roig" font-family="Satisfy-Regular, Satisfy" font-size="72" font-weight="normal" line-spacing="72" fill="#C3453E">
                    <tspan x="0" y="162">Daina Roig</tspan>
                </text>
            </g>
        </g>
    </g>
</svg>