<?xml version="1.0" encoding="UTF-8"?>
<svg width="185px" height="168px" viewBox="0 0 185 168" version="1.1" xmlns="http://www.w3.org/2000/svg" xmlns:xlink="http://www.w3.org/1999/xlink">
    <!-- Generator: Sketch 48.1 (47250) - http://www.bohemiancoding.com/sketch -->
    <title>Fill 260</title>
    <desc>Created with Sketch.</desc>
    <defs>
        <radialGradient cx="66.5100694%" cy="38.1979689%" fx="66.5100694%" fy="38.1979689%" r="136.863942%" gradientTransform="translate(0.665101,0.381980),scale(0.906718,1.000000),rotate(90.000000),translate(-0.665101,-0.381980)" id="radialGradient-1">
            <stop stop-color="#C3453E" offset="0%"></stop>
            <stop stop-color="#C3453E" stop-opacity="0" offset="100%"></stop>
        </radialGradient>
    </defs>
    <g id="navigation/home-selected" stroke="none" stroke-width="1" fill="none" fill-rule="evenodd" transform="translate(78.000000, 48.000000)">
        <path d="M-19.0278628,32.5528207 C-18.7845094,32.0154963 -16.5612326,31.5521515 -16.2672617,32.3484038 C-17.6981798,32.334776 -17.8617133,32.5314056 -19.0278628,32.5528207 Z M105.818276,9.08576485 C104.422401,9.08576485 103.668979,9.7535266 102.646894,9.69317496 C98.8778367,9.36610798 93.6953825,10.413501 90.2319768,8.48419523 C89.7491636,6.43613295 88.0223279,5.80146726 86.4901748,4.94096961 C86.0268299,4.68788207 85.7114439,4.1330363 85.3084507,3.95198136 C85.0300544,3.8332249 84.6075928,4.0473759 84.3194624,3.95198136 C84.0722153,3.87800193 83.9359374,3.43412531 83.7295737,3.35819905 C83.2428669,3.21413383 82.5244877,3.09732419 81.94628,2.96104629 C80.5893414,2.67096902 78.6989721,2.31275281 77.2154897,1.983739 C74.5210808,1.38022255 72.6949568,1.19138031 72.6832759,-1.36480389 C72.5742535,-2.0656617 73.3763464,-1.85929801 73.2731645,-2.54652804 C72.9616722,-4.02027627 73.5593481,-5.18837263 74.2660464,-6.29806417 C74.4860379,-6.65822721 74.7975303,-7.09431652 75.0525646,-7.47784149 C76.1972991,-9.28644402 77.3069906,-10.1683568 78.5957903,-11.4357413 C79.1097526,-11.9166076 79.4640752,-12.6505615 79.9838781,-13.2073541 C80.7256193,-14.0055533 81.7418631,-14.5818142 82.3492732,-15.3780665 C83.1552597,-16.4274064 83.2701225,-17.8602713 84.7107747,-18.3314035 C84.8217438,-19.6085222 85.6394113,-20.1633679 86.2935452,-20.8992686 C86.2935452,-21.6818932 86.6809639,-22.0809928 86.6887512,-22.8655642 C89.5856301,-25.8792528 92.0425261,-29.3407116 95.3657603,-31.9338856 C95.357973,-32.4030709 95.7045082,-32.5237742 95.5662835,-33.1292375 C96.0997142,-33.1409185 95.9537021,-32.7924364 96.3508549,-33.1292375 C96.4715582,-33.7911588 97.0536595,-33.9975224 97.1373731,-34.6925398 C98.6851008,-35.8898385 100.480076,-36.5283979 102.068687,-37.4589813 C102.715033,-37.8444531 103.137495,-38.7361 104.038876,-38.6523864 C103.715702,-39.2636902 104.422401,-39.1215718 104.628764,-39.435011 C105.323782,-40.5077128 105.292632,-42.0904834 106.009065,-43.1846003 C105.722881,-43.8698835 105.510677,-44.6544549 104.829288,-44.9562131 C103.764373,-45.0963847 103.232889,-44.7167534 102.267263,-44.765424 C101.753301,-44.0275765 101.05439,-43.4746776 100.297074,-42.9821303 C100.297074,-42.5187854 99.9505385,-42.4000289 100.094604,-41.7984593 C97.9998176,-39.4953626 95.6538907,-37.4317257 93.7829897,-34.8989035 C93.4442418,-34.9105844 93.1755796,-34.8521796 92.9964715,-34.6925398 C92.4221575,-34.2525568 92.2547303,-33.4037401 91.6122773,-32.9228738 C91.4078605,-32.763234 91.0048672,-32.8995119 90.8257591,-32.7281911 C90.590193,-32.5004123 90.6836407,-32.0409611 90.4305532,-31.7392028 C90.2241895,-31.5016899 89.6615564,-31.3907207 89.4493522,-31.1473673 C88.9743264,-30.6587137 88.5966419,-30.0415695 88.0729454,-29.5704373 C87.2046604,-28.8189619 86.0910752,-28.3614575 85.5011865,-27.6060885 C85.2052688,-27.206989 85.3765896,-26.6891329 85.1059806,-26.2199475 C84.6270611,-25.3886523 83.546572,-24.467803 82.7366918,-23.6598697 C80.6964169,-21.5864987 78.2804042,-19.7175445 77.6126425,-16.5578438 C77.5367162,-16.0906053 78.5140235,-16.6668662 78.204478,-15.9718488 C77.3731827,-15.7635383 77.4822051,-14.9088811 77.0266475,-14.3890783 C76.0454465,-13.2891209 74.4587823,-12.9289578 73.2731645,-12.0275768 C72.0602911,-11.9302354 71.2367832,-12.2183659 70.3159339,-12.4111018 C69.17704,-14.8952534 66.5936002,-15.8491987 65.5831968,-18.1347739 C65.2872791,-18.8122698 64.9368502,-20.0193027 64.7966786,-20.8992686 C64.6175705,-22.0089602 65.1451607,-22.6027425 65.1879909,-23.2627169 C65.3690458,-26.136234 63.9186595,-29.2667322 63.6071672,-31.9338856 C64.0685652,-32.4030709 64.1853749,-33.1993233 65.1879909,-33.1292375 C64.6818158,-34.4316649 65.9336257,-35.309684 66.369715,-36.2733635 C66.3580341,-40.3850627 71.2289959,-41.204677 69.7240984,-45.5461018 C66.708463,-46.9964881 64.7888913,-43.6206896 65.1879909,-39.8302169 C63.9420215,-37.8541873 63.5662838,-35.0079258 60.8465661,-34.5017507 C58.2047215,-37.3752677 52.9268728,-36.4096414 49.8080555,-35.0935862 C47.5380549,-31.511424 45.3478743,-27.849442 43.097342,-24.2555988 C40.6832762,-22.8305213 37.5274692,-20.8875877 34.0309674,-22.2756755 C32.9271163,-23.768892 32.017948,-24.0706502 31.4631022,-25.2309593 C30.6395943,-26.9655824 30.7116269,-30.0785592 31.0678963,-32.3290915 C31.5818587,-35.5880803 33.6377083,-38.5414173 34.0309674,-41.6057234 C34.4631631,-45.0399267 32.9913616,-49.4670119 29.888119,-47.5260251 C27.8497909,-46.2469596 28.5175526,-40.4473612 28.3111889,-38.25134 C28.1242935,-36.3590239 26.6038214,-32.6931482 26.3371061,-31.3420501 C25.8134095,-28.6768435 26.1930409,-25.8695186 24.9529119,-24.6391238 C23.2572253,-23.8409246 22.2254069,-22.3749637 21.0144803,-21.0939514 C20.9210326,-19.1412836 19.9262039,-18.0899969 19.0365038,-16.9452625 C19.0365038,-16.6181955 19.0365038,-16.2950222 19.0365038,-15.9718488 C18.5634248,-15.6331009 18.3648484,-15.0042757 18.0533561,-14.5818142 C17.0293249,-13.2073541 15.8281325,-12.183323 14.7028664,-11.0366417 C13.8521028,-10.5674564 12.7891352,-10.312422 11.9383716,-9.8568644 C11.9500526,-10.1936655 11.7943064,-10.3630395 11.5412189,-10.4486999 C11.2024709,-9.93863115 11.7748382,-9.74589525 11.348483,-9.45971164 C10.8676166,-10.131367 10.9902668,-8.44152098 10.5580711,-9.45971164 C10.6281569,-8.57585207 10.0655238,-7.87888791 9.17777058,-7.28705242 C8.66186136,-6.94830448 7.67287311,-6.82954801 6.61379908,-6.29806417 C4.23866982,-5.12802099 1.98424385,-2.38104772 -0.68680315,-2.9436808 C-2.08657195,-2.11238556 -3.94384516,-1.61789143 -6.00942888,-1.56922075 C-6.3033998,-1.55948661 -6.70055256,-1.79894637 -6.99647031,-1.7658503 C-7.98740538,-1.63151922 -8.77197677,-1.10198221 -9.75512453,-1.17206799 C-11.4079809,-1.29471811 -13.2749882,-2.47449543 -14.0926557,-3.34278039 C-17.4918161,-4.03195724 -19.0083945,-5.67118579 -21.9870402,-6.50442786 C-22.7696648,-7.61217257 -24.2219979,-8.06773015 -25.9293654,-8.27409384 C-26.1766125,-8.87761029 -26.8988854,-9.02362234 -27.1130364,-9.65244754 C-28.8535,-10.08659 -30.1559274,-10.954875 -31.0553616,-12.2183659 C-32.5076947,-12.0859816 -32.3675232,-13.5305274 -33.8159627,-13.4020368 C-35.9613663,-15.5338127 -38.940012,-16.826506 -41.1224054,-18.923239 C-41.6733575,-18.9582819 -41.9361792,-19.2872957 -42.4929718,-19.3203917 C-42.7596871,-20.5760953 -43.7778778,-19.8616097 -44.0718487,-21.0939514 C-44.5429809,-20.8291829 -45.5436501,-21.7208297 -45.8512488,-22.2756755 C-46.9414721,-22.3613359 -47.7902887,-24.2049813 -49.5930508,-24.0472883 C-52.3867479,-26.5100248 -56.3446477,-27.9779326 -58.4666894,-30.5594255 C-59.091621,-30.7755233 -58.9164065,-30.5711065 -59.6503604,-30.5594255 C-59.6406263,-30.8962266 -59.6990311,-31.1746229 -59.8489368,-31.3420501 C-61.0832253,-31.6457551 -62.2688431,-32.3466129 -63.0066906,-32.9228738 C-63.205267,-33.07862 -63.4252585,-33.3803782 -63.6004729,-33.5147093 C-65.887995,-35.3447269 -68.603819,-36.4213224 -69.9081933,-38.8431755 C-71.6875934,-40.1125069 -73.9206043,-41.4480304 -77.2087955,-40.6167351 C-77.5241815,-39.8788876 -78.0225693,-39.6258001 -77.9992074,-38.8431755 C-77.9816859,-38.3992989 -76.6889926,-36.2733635 -75.828495,-35.4887921 C-75.2814365,-34.9962448 -74.802517,-35.1792466 -74.0452012,-34.8989035 C-73.4533657,-34.6828056 -73.0386915,-34.1630028 -72.6687943,-34.1045979 C-71.9640429,-34.0072566 -71.1561095,-34.4316649 -70.5058692,-34.3090148 C-68.6758516,-33.9702669 -67.6031498,-31.9222046 -66.1624976,-32.1402492 C-66.5577035,-31.6788512 -66.1138269,-31.9222046 -65.9658681,-31.5464669 C-64.53495,-31.0052489 -63.0222652,-30.5457977 -62.4109615,-29.1713377 C-59.3680705,-27.8591761 -57.4854885,-25.3399816 -54.5282579,-24.4463879 C-53.5879403,-23.2140462 -52.1511818,-22.6728283 -50.3834627,-21.8765759 C-49.3711125,-20.8408638 -47.9265667,-19.238625 -46.4450311,-19.3203917 C-46.59299,-17.9459317 -44.2470631,-17.4494907 -43.6824832,-16.1626379 C-43.2152447,-16.1626379 -43.0945414,-15.82389 -42.4929718,-15.9718488 C-41.6947726,-14.9809138 -40.7525082,-14.1612995 -39.3371648,-13.7972428 C-39.2495575,-12.9893095 -38.5837426,-13.0866508 -38.1573875,-12.8102014 C-37.9568642,-12.6758703 -37.9412896,-12.3040263 -37.7660752,-12.2183659 C-37.3864439,-12.0275768 -37.0671642,-12.2417278 -36.7770869,-12.0275768 C-36.2339221,-11.6284772 -36.0372926,-10.8322249 -35.3948396,-10.8322249 C-35.5661604,-10.8069161 -33.0878493,-10.1566758 -33.226074,-8.86592933 C-31.1935863,-8.85424836 -30.8665194,-7.15466816 -29.281802,-6.69521693 C-29.3479941,-6.20266963 -28.8398722,-5.10660589 -28.2947605,-4.52450453 C-28.0514071,-4.27141699 -27.568594,-4.31814084 -27.3135596,-4.12540495 C-26.9086195,-3.8509023 -27.5316043,-3.28242874 -26.7197773,-3.73993315 C-26.7509265,-3.24738585 -26.4063381,-3.12862939 -26.3226245,-2.7509449 C-25.9488337,-2.38104772 -25.8281304,-2.72563614 -25.3375299,-2.7509449 C-23.9455484,-0.870309764 -21.4283008,0.815642644 -18.6287632,1.77932214 C-18.2861216,1.90586591 -17.8013616,1.67419347 -17.4431454,1.77932214 C-17.2153666,1.8552484 -16.5339771,2.33806156 -16.0667385,2.57557449 C-15.5352547,2.840343 -14.8071413,3.12068612 -14.4917553,3.35819905 C-14.0673469,3.68721286 -13.886292,4.49514617 -13.5047138,4.74823371 C-13.1056143,5.00132126 -13.0783587,4.39585798 -12.714302,4.74823371 C-12.8077497,5.49386855 -11.6863772,5.67687032 -11.7311542,6.12269376 C-11.2911712,7.45821726 -10.9018058,8.84825193 -9.95175409,9.67760034 C-10.5494301,9.9462625 -9.54486719,10.6899505 -10.1522773,11.0540072 C-8.4741122,12.1734329 -8.28526995,13.7328415 -8.17624763,16.1780566 C-8.55393211,16.2734511 -9.02117066,15.5764869 -8.97055315,16.3863671 C-8.92577612,17.480484 -8.25606754,18.7245066 -9.16134222,19.3358104 C-9.34434398,19.4604073 -9.41053611,18.9075084 -9.56433546,18.9386576 C-9.61105932,19.520759 -9.1885978,19.6278345 -8.97055315,19.9276459 C-9.39301466,20.0989667 -9.46894093,20.42214 -9.95175409,20.9166341 C-9.03285162,21.1969772 -9.79016743,21.436437 -8.97055315,21.5084696 C-9.22364069,22.28136 -8.39429228,21.9893359 -8.37093035,22.4974579 C-8.80117918,23.3053912 -7.85696795,23.9400569 -7.58441214,25.0536421 C-8.64348617,24.524105 -7.56494387,26.3171329 -8.77197677,26.4417299 C-7.84723382,26.3911124 -8.49358047,26.6695087 -8.17624763,27.2263013 C-8.65906079,26.8116271 -8.62207107,27.646816 -8.77197677,27.8181368 C-9.45531314,28.5988145 -11.1938299,29.1283515 -12.5137788,29.39312 C-15.013505,29.9012419 -17.898703,29.5547067 -19.4172282,30.7831547 C-22.767718,30.6488236 -25.7814066,31.6125031 -28.4933369,32.1556679 C-28.898277,32.3484038 -28.6646577,33.1680181 -29.281802,33.1407625 C-30.6815708,33.19138 -31.423312,32.807855 -32.6381322,33.1407625 C-35.68297,30.5670569 -39.0451407,34.904588 -42.8862309,33.337392 C-44.2840528,34.1472722 -46.5092764,34.7605228 -48.8006921,35.1090049 C-50.5995605,35.3874012 -53.3348528,36.0512693 -53.547057,37.6807637 C-53.7670484,39.4757384 -52.1317135,40.0792549 -50.582039,39.8475824 C-50.39125,39.8242205 -49.6650834,39.3199922 -49.2036853,39.0649579 C-47.6540108,38.1966729 -45.6040017,37.5328048 -44.0718487,38.2687055 C-43.6377062,37.5581136 -42.8550816,37.9435854 -42.0997127,37.6807637 C-41.8388378,37.5814755 -41.9225514,37.2427275 -41.5078772,37.0889282 C-40.0263416,36.5301888 -36.6485963,36.3043568 -35.3948396,35.9091509 C-34.2793075,35.5431473 -33.6407482,35.9889708 -33.0255508,36.1018868 C-31.2344697,36.4250601 -29.7256786,35.5236791 -28.1000778,35.3134217 C-27.6542544,35.2550169 -27.1831222,35.5431473 -26.7197773,35.5081044 C-26.6730534,35.5081044 -26.3907635,35.1693565 -26.1201545,35.1090049 C-25.3667323,34.9649396 -24.2414662,35.3640392 -23.1687644,35.3134217 C-21.8721774,35.2550169 -20.242683,34.7371609 -18.6287632,34.9182158 C-16.6293716,35.1459946 -14.9025358,35.0603342 -13.1056143,34.3263803 C-12.6481098,34.3867319 -12.3677667,34.6417663 -11.7311542,34.5191162 C-10.8122517,33.7598536 -8.88489275,33.7598536 -7.58441214,33.9272807 C-7.10159898,35.4847425 -6.90691625,36.4893054 -6.60126437,37.6807637 C-6.81541537,37.3517499 -7.03346002,37.7391685 -7.19115303,37.8715527 C-7.88422354,38.4984311 -7.68564716,38.6444432 -7.78104169,39.0649579 C-7.80829727,39.1506183 -8.30084457,39.3686629 -8.37093035,39.4523765 C-8.40013276,39.4757384 -9.53707988,40.0636802 -10.5455364,40.6341006 C-10.6584524,41.7184834 -10.8278264,42.2811165 -11.3320546,43.200019 C-12.432012,45.1818891 -13.8045252,46.2409631 -15.2763266,47.3487079 C-16.4969873,48.2559294 -17.8247235,49.2663327 -18.8273396,49.9068389 C-19.7832318,50.5337173 -20.9571686,51.2812989 -21.7884638,51.6803985 C-21.9870402,51.7718994 -22.3452564,51.585004 -22.5769289,51.6803985 C-24.1032415,52.340373 -25.8417582,53.4383835 -27.5043487,53.658375 C-28.7814674,55.1379637 -30.6290064,56.0568662 -33.4246504,56.0179296 C-34.7601739,57.4430072 -38.6869245,57.7934361 -38.1573875,60.1685654 C-37.6531592,62.4366191 -34.2578924,61.0115416 -32.0443499,60.758454 C-31.1157132,59.8434452 -30.4284832,58.6948171 -29.4823252,57.7934361 C-27.5958496,57.2132816 -26.5387224,54.8731952 -24.1499653,55.4299878 C-23.511406,54.1626033 -21.3621087,54.2716256 -20.4062165,53.8491641 C-20.3945355,54.1626033 -20.4315252,54.5344473 -20.0051701,54.4409996 C-19.3588234,53.3916597 -18.1770993,53.1716682 -17.2504095,52.474704 C-16.5261898,51.9198583 -16.0024932,51.0398923 -15.2763266,50.4967275 C-13.1776469,48.9275848 -11.4118745,48.518751 -8.57145356,47.9405433 C-6.89134163,47.5901144 -5.4682109,47.1209291 -3.45129786,47.5453374 C-2.89645209,48.1819499 -1.96002818,49.0112983 -1.46942771,49.1203207 C-0.869804913,49.6303894 -0.731580177,50.6213245 0.105555545,50.8958271 C0.529963888,52.3559476 2.20228851,53.6311194 2.27626794,56.0179296 C3.13092511,56.5494135 3.8298361,57.2249626 4.04788075,58.3988994 C4.61440748,58.5877416 4.98430466,59.1309064 5.42818128,59.5767299 C5.6364918,59.7811467 6.53008551,60.9064129 6.61379908,60.9511899 C7.43146653,61.4223221 8.778671,61.2159584 9.96818245,61.5430254 C10.6534656,61.7338145 11.1576939,62.2068935 11.7378484,62.3392778 C12.633389,62.5320137 13.647686,62.3606929 14.5003963,62.5320137 C15.5847791,62.7500583 16.4550109,63.4236606 17.4634674,63.1199555 C18.0806117,64.2705304 19.1630476,64.4613195 19.8288625,65.4853506 C20.9755438,67.2666976 20.465475,70.0272986 21.2072162,72.3946406 C21.4544633,73.167531 22.0949695,73.741845 22.392834,74.3628829 C22.7744122,75.1824972 22.8581258,76.0254734 23.374035,76.7380122 C22.8172424,79.0664176 22.8581258,81.9905521 21.604369,83.6317275 C21.1176622,86.3456047 21.6218904,89.0711629 23.374035,90.5332302 C30.0068755,91.0024155 29.1872612,83.366959 28.5078185,78.1105254 C29.2476128,77.0728665 29.9601516,76.0118456 30.676584,74.9527716 C32.4365159,74.4777457 32.761636,72.5795892 34.8155388,72.3946406 C35.4794069,72.5153439 35.4482577,73.3349581 35.4093211,74.1682002 C35.8434636,75.6984064 36.7098017,76.808098 37.1828807,78.3168891 C38.1738158,78.8950968 38.5807027,80.0631932 39.3516463,80.8711265 C38.9875896,81.9555093 39.5229671,83.6803982 39.9454286,84.6207158 C40.4126672,84.7433659 40.842916,84.9010589 41.5243055,84.8134517 C42.7975306,87.0581435 45.1746067,89.7506056 44.6801125,92.5092598 C44.3783543,92.1958207 43.796253,92.2873215 43.8838602,92.9064126 C44.1778311,93.0154349 44.9078913,92.6747402 44.8767421,93.0952548 C45.0071795,95.0751782 45.8306874,96.9227172 46.0565194,98.8150333 C46.2122656,100.06879 45.8306874,101.336175 46.0565194,102.564623 C46.2278402,103.516621 46.9793155,104.493928 47.2382435,105.533534 C47.7327377,107.486202 47.4465541,109.559573 48.2272318,110.65369 C47.4465541,113.511632 46.6308334,121.664945 50.7892565,119.326805 C50.8165121,116.684961 52.5608693,115.217053 51.5816152,112.621932 C51.3304745,111.979479 50.4057315,111.414899 50.2013146,110.65369 C49.7788531,109.121537 50.3901569,107.110464 49.9988446,105.325224 C49.3875408,102.515952 48.2797961,101.104502 48.4238614,98.6222974 C48.4822662,97.6294155 49.0779953,96.8000671 49.2123264,95.6670137 C49.4284242,93.8584111 49.1325065,92.0011379 47.8359195,90.7337534 C46.5957906,86.7330234 44.6840062,82.0041799 44.2868534,76.5297017 C46.3757991,74.9177287 48.371297,78.2039731 50.5926269,76.7380122 C53.7717958,78.6984672 53.0027991,84.6830142 53.9489571,88.3722519 C54.4395576,88.6000307 55.1053725,88.6506482 55.7205699,88.7577237 C56.2462133,88.3002193 56.5499183,87.6129893 56.7056645,86.7914282 C55.6563246,86.0808362 56.0593179,84.8134517 55.7205699,83.2326279 C55.4927911,82.1599261 54.9048493,80.966521 54.7335285,79.8821382 C54.2760241,76.8548218 52.7516584,73.2960216 53.1585453,71.409546 C53.5732195,69.4432504 55.9152527,69.1064493 57.1008705,70.0272986 C57.4357247,71.939083 55.3643005,76.8937584 58.481171,77.1215372 C60.0561542,76.255199 59.6726293,74.8379088 59.6687356,73.179212 C59.653161,70.3563124 61.1483243,68.197281 62.0380244,66.6670748 C62.3300485,66.1628465 62.3495168,65.5554364 62.6259662,65.097932 C62.9355118,64.5703418 63.5234536,64.2160192 63.8096372,63.711791 C64.4735053,62.5534288 64.5747403,60.5773991 66.369715,60.758454 C66.9031457,60.9511899 66.6169621,61.9518591 67.3587033,61.942125 C67.5455987,61.6033771 67.981688,61.5060357 68.3437979,61.3483427 C69.7688754,61.5663873 70.9642274,59.9154778 72.2919636,59.3742598 C72.5119551,59.8045087 73.5846569,59.3820472 73.6722641,59.9641485 C74.2095884,61.085521 72.7338934,63.9901873 73.6722641,64.3055733 C75.4360896,64.7611309 74.5697515,60.8694232 75.6424533,59.9641485 C76.3841945,60.4586426 77.6087488,60.0459153 78.0078484,59.5767299 C79.3161163,60.0634367 80.2311252,59.3119614 81.3563913,59.1795771 C82.216889,59.0822358 83.106589,59.2243541 83.9281501,59.1795771 C85.6919756,59.056927 86.7140599,58.5877416 88.0729454,58.3988994 C89.7491636,58.1419182 91.7154592,58.5293368 93.3916774,57.9997998 C94.0574924,57.7817551 94.2813775,56.9017892 95.1671839,57.2016006 C95.9361807,55.8154596 97.0770214,55.112655 97.3340026,53.4597986 C97.6552291,51.427311 96.7188052,50.7381341 96.5435908,49.5077393 C96.1483848,46.7432446 98.4865244,44.1286556 97.9238913,41.2337234 C97.5929307,39.5107813 95.5546025,38.3563127 94.771978,36.6898286 C94.388453,35.8818953 94.3534101,34.9182158 93.9815661,34.3263803 C92.4338384,31.8286009 89.102817,30.5534291 88.460364,27.8181368 C89.486342,27.308068 92.134027,27.6701779 91.2248587,25.8479476 C89.3383831,25.9199802 86.9398919,26.1146629 86.2935452,24.4637534 C86.4668129,23.5954684 87.6738458,23.7414805 87.276693,22.293041 C86.645921,22.1256139 87.0080309,22.9452281 86.4901748,22.8829297 C85.2617268,21.8219088 83.8366492,21.1833495 84.3194624,19.3358104 C84.5900714,18.3000983 86.3461096,17.9632972 87.0800635,17.3597807 C87.4188114,17.096959 87.5511957,16.5907839 87.8704753,16.3863671 C88.5849609,15.9132881 89.5544809,15.924969 89.8406645,15.395432 C90.072337,15.5628592 90.3721484,15.6485196 90.8257591,15.5881679 C91.559713,14.8970442 91.0905276,14.2000801 91.8147474,13.6238192 C92.258624,13.9937164 93.7304254,13.2344537 94.376772,13.8165551 C95.5662835,12.1130812 99.0082741,12.6581929 100.688386,11.4531068 C100.776642,11.4531068 100.941474,11.3525207 101.18288,11.1513486 C101.469064,11.5601823 102.049218,11.4764687 102.364604,11.1513486 L101.461276,11.1513486 C101.398978,10.6295989 101.897366,10.9488785 102.068687,11.0540072 C103.312709,11.5115116 103.579425,10.7853451 104.437975,10.6568545 C104.909108,11.124093 106.408165,11.2019661 107,10.6568545 L106.799477,10.0669658 C106.049948,9.4965454 106.369228,9.17337208 105.818276,9.08576485 Z" id="Fill-260" fill="url(#radialGradient-1)"></path>
    </g>
</svg>